<?xml version="1.0" encoding="UTF-8"?><svg xmlns="http://www.w3.org/2000/svg" viewBox="0 0 178.93 178.98"><defs><style>.d{fill:#fff;}</style></defs><g id="a"/><g id="b"><g id="c"><path class="d" d="M150.68,119.07c.71,6.19-1.13,12.45-2.32,18.79-.6,3.2-.82,6.42-.54,9.65,.31,3.6,1.9,6.63,4.43,9.21,3.75,3.84,7.58,7.61,10.97,11.79,.15,.19,.32,.37,.47,.56,1.79,2.26,1.37,3.54-1.45,4.3-1.06,.29-2.13,.54-3.22,.68-3.25,.42-6.29,1.48-9.2,2.92-4.18,2.07-8.46,2.66-12.94,1.19-1.84-.6-3.64-.18-5.4,.3-2.66,.72-5.23,.59-7.61-.8-3.2-1.86-6.63-1.96-10.12-1.5-5.32,.71-10.3,.43-14.6-3.41-2.19-1.96-4.93-2.58-7.88-1.86-5.76,1.4-11.55,.74-17.27-.07-9.4-1.33-18.66-1.49-27.88,1.27-6.39,1.91-12.01,.22-16.35-4.87-2.76-3.23-5.97-3.83-9.85-2.76-5.23,1.45-10.46,2.88-15.52,4.87-2.53,1-3.31,.64-3.72-2.09-1.76-11.69,0-22.86,5.4-33.37,1.85-3.6,3.4-7.21,3.11-11.3-.45-6.21,1.76-11.5,5.46-16.26,2.81-3.61,5.81-7.07,8.69-10.62,1.85-2.28,3.5-4.7,4.49-7.5,1.32-3.77,1.13-7.45-.76-10.97-1.07-1.99-2.23-3.93-3.46-5.82-1.89-2.89-2.79-6.07-3.03-9.47-.19-2.73-.94-5.22-2.57-7.49-2.29-3.19-2.06-5.32,.54-8.16,.21-.22,.42-.45,.62-.67,2.41-2.72,2.7-3.78,.78-6.8-3.92-6.16-6.48-12.8-8.07-19.89-.87-3.87-2.8-7.05-6.41-9.15-2.83-1.65-2.7-3.63,.34-4.81C12.29,2.44,18.91,.45,26.08,1.46c4.49,.63,9-.01,13.5-.44,8.62-.81,17.24-1.74,25.88-.2,.78,.14,1.54,.36,2.3,.59,2.83,.88,4.11,2.52,4.21,5.49,.06,1.89,.03,3.78-.01,5.67-.05,2.28,.9,4,2.83,5.19,.78,.48,1.55,.97,2.34,1.43,2.96,1.75,4.83,4.18,5.22,7.71,.17,1.56,.39,3.15,1.06,4.62,.98,2.14,2.21,2.71,4.41,1.88,1.14-.43,2.26-.95,3.3-1.56,3.44-2.03,7.04-2.53,10.92-1.59,2.01,.49,4.08,.72,6.17,.62,1.25-.06,1.71-.54,1.46-1.87-.41-2.11-1.2-4.09-1.77-6.15-.96-3.46,.14-5.12,3.72-5.48,1.64-.17,3.28-.07,4.93,.09,2.91,.29,5.83,.47,8.75-.06,2.84-.51,3.48-.19,4.44,2.32,.4,1.04,1.15,.91,1.93,.91,2.92-.03,5.8-.59,8.75-.09,4.75,.8,7.33,3.91,6.47,8.64-.63,3.5-.43,6.73,1.17,9.94,1.57,3.16,1.62,6.46,.25,9.75-.14,.34-.21,.71-.36,1.04-1.91,4.09-1.24,7.43,2.49,10.27,3.72,2.82,4.9,6.66,3.63,11.23-.45,1.64-.61,3.36-.96,5.02-.24,1.1-.2,1.35,1.19,1.25,5.4-.41,10.44-2.34,15.67-3.42,2.62-.54,5.08,.01,7.37,1.39,1.18,.7,1.75,1.65,1.57,3.02-.1,.78-.15,1.59-.34,2.35-1.19,4.72-.77,9.41,.02,14.14,.91,5.43-1.38,9.23-6.5,11.26-2.46,.98-5.02,1.47-7.67,1.54-3.65,.1-7.31-.18-10.97,.27-1.38,.17-2.09,.78-2.4,2.06-.66,2.78-.15,5.59-.37,8.77Z"/><path d="M160.04,170.31c-.37-1.08-1.03-1.72-1.65-2.37-2.11-2.2-4.26-4.37-6.39-6.55-3.67-3.76-6.85-7.81-7.55-13.27-.5-3.87,.07-7.67,.77-11.45,1.13-6.11,2.67-12.16,2.34-18.45-.12-2.25-.34-4.48-.06-6.75,.64-5.18,2.14-6.6,7.43-6.69,3.84-.07,7.69,.3,11.51-.34,9.1-1.52,9.98-5.12,8.48-11.45-.76-3.23-.67-6.4-.1-9.61,.19-1.08,.35-2.17,.54-3.25,.23-1.3-.21-2.03-1.59-2.34-2.49-.55-4.84-.11-7.19,.65-2.61,.85-5.17,1.92-7.95,2.02-1.54,.05-2.98,.25-4.44,.82-3.49,1.36-5.19-.07-4.61-3.78,.44-2.83,.92-5.65,1.47-8.46,.4-2.05-.22-3.74-1.57-5.2-.79-.85-1.63-1.65-2.52-2.4-3.09-2.58-4.13-5.79-3.07-9.66,.35-1.29,.82-2.55,1.26-3.82,.66-1.88,1.15-3.91,.37-5.73-2-4.66-2.81-9.37-2-14.43,.34-2.09-.81-3.21-2.87-3.84-.96-.29-1.93-.22-2.9-.25-2.75-.07-5.46,.58-8.22,.4-1.56-.1-2.93-.47-3.35-2.23-.22-.93-.76-1.12-1.63-.95-1.94,.38-3.9,.3-5.84,.1-1.95-.2-3.9-.24-5.85-.24-1.96,0-2.11,.2-1.55,2.13,.42,1.46,1,2.88,1.4,4.35,1.29,4.8-.84,7.39-5.8,6.99-1.94-.15-3.87-.47-5.79-.82-3.05-.55-5.92-.3-8.62,1.4-1.6,1.01-3.35,1.76-5.23,2.11-2.89,.54-5.36-.7-6.61-3.37-.62-1.34-1.02-2.76-1.18-4.22-.4-3.8-2.06-6.52-5.61-8.33-4.41-2.25-6.07-6.06-5.17-11.03,.69-3.8-.37-5.28-4.19-6.08-5.81-1.23-11.68-.59-17.5-.18-8.44,.59-16.82,1.69-25.34,.84-4.51-.45-8.81,1.33-13.12,2.94,4.04,3.89,5.08,5.37,6.26,9.85,1.81,6.87,4.13,13.45,7.89,19.59,3.34,5.46,2.31,7.36-1.18,10.67-.13,.13-.24,.27-.36,.42-1.54,1.88-1.67,2.77-.29,4.74,1.65,2.36,2.8,4.93,2.88,7.79,.13,4.75,2.24,8.66,4.73,12.47,.43,.66,.85,1.34,1.24,2.03,2.91,5.21,3.22,10.51,.54,15.93-1.25,2.53-2.88,4.81-4.63,7.01-3.12,3.91-6.63,7.51-9.36,11.72-2.11,3.26-3.87,6.68-3.65,10.73,.27,5.07-.92,9.73-3.31,14.22-4.86,9.13-6.5,18.96-5.78,29.23,.11,1.6,.6,1.97,2.16,1.39,4.7-1.72,9.47-3.16,14.35-4.31,4.6-1.09,8.42-.19,11.58,3.37,.61,.68,1.31,1.28,1.97,1.91,2.28,2.17,4.97,3.3,8.15,2.99,1.45-.14,2.95-.22,4.33-.64,8.89-2.7,17.88-2.47,26.99-1.36,6.08,.74,12.17,1.66,18.35,.24,3.07-.7,6.37-.4,8.81,1.93,3.98,3.8,8.71,4.02,13.67,3.31,3.8-.54,7.41-.28,10.81,1.65,1.89,1.07,3.88,1.31,6.01,.73,2.95-.81,5.92-.76,8.84,.13,1.82,.55,3.6,.58,5.38-.06,4.96-1.81,9.75-4.14,15.11-4.94Z"/></g></g></svg>